<svg width="472" height="731" viewBox="0 0 472 731" fill="none" xmlns="http://www.w3.org/2000/svg">
<path d="M186.206 126.948C193.706 139.448 188.206 149.448 186.206 165.948C180.707 147.451 165.705 119.945 159.205 113.445C152.705 106.945 138.705 102.445 130.705 99.4471C124.305 97.0485 113.705 78.115 109.205 68.9481H165.705C178.205 68.9481 191.705 48.4445 205.205 43.4453C218.705 38.4461 207.705 35.9453 215.205 31.4445C222.704 26.9437 241.205 6.4445 236.205 3.4445C231.204 0.444501 207.205 12.9445 191.705 31.4445C176.205 49.9445 166.205 47.9445 153.205 48.4445C140.205 48.9445 106.205 40.4471 85.2054 39.9471C64.2054 39.4471 60.2054 42.4471 61.7054 62.4471C63.2054 82.4471 102.705 121.447 106.205 126.948C109.706 132.449 120.205 147.447 125.205 157.447C130.205 167.447 106.205 248.447 102.705 273.947C99.2042 299.447 106.705 331.947 106.205 357.447C105.705 382.947 71.096 434.945 63.596 449.445C56.096 463.945 12.2071 528.947 5.20715 550.947C-1.79285 572.947 10.0938 602.445 10.0938 620.445C10.0938 638.445 27.096 690.945 27.596 700.445C28.096 709.945 13.2035 712.447 15.7035 723.947C18.2035 735.447 80.096 721.445 94.596 720.945C109.096 720.445 112.596 719.445 112.596 708.945C112.596 698.445 109.205 692.945 106.205 681.445C103.205 669.945 102.096 642.445 98.596 632.945C95.096 623.445 86.096 578.945 94.596 570.945C103.096 562.945 149.14 463.397 165.094 458.445C179.591 453.945 175.594 501.945 181.705 518.947C184.851 527.699 186.206 561.945 191.096 574.945C194.125 582.997 197.596 630.445 197.596 644.945C197.596 659.445 199.096 710.945 205.596 716.445C212.096 721.945 287.705 721.947 287.705 712.447C287.705 702.947 281.205 683.947 279.705 671.947C278.205 659.947 279.705 614.947 274.205 596.947C268.705 578.947 264.594 535.445 265.594 514.945C266.594 494.445 267.705 442.447 260.705 429.947C253.705 417.447 240.094 358.947 237.094 346.947C234.094 334.947 215.205 320.947 215.205 311.947C215.205 302.947 232.205 247.947 245.205 244.447C258.205 240.947 302.205 338.947 309.205 346.947C316.205 354.947 374.205 403.447 385.205 418.447C396.205 433.447 412.705 434.447 418.705 434.447C424.705 434.447 467.705 423.947 469.205 418.447C470.705 412.947 430.705 414.947 412.705 413.447C394.705 411.947 383.705 388.447 374.205 373.947C364.705 359.447 344.205 322.447 328.205 311.947C312.205 301.447 301.705 272.947 297.205 252.947C292.705 232.947 282.205 203.947 273.205 195.947C264.205 187.947 230.705 180.447 232.205 165.948C233.705 151.449 253.205 126.948 258.205 99.4471C263.205 71.946 240.705 54.9481 222.705 52.4481C204.705 49.9481 194.206 54.9481 186.206 68.9481C178.206 82.9481 178.706 114.448 186.206 126.948Z" stroke="white" stroke-width="5"/>
</svg>
